<svg xmlns="http://www.w3.org/2000/svg" x="0px" y="0px" width="100" height="100" viewBox="0 0 24 24">
<polygon points="6,6.35 6,2.618 16.924,8.08 13.932,9.875" opacity=".3"></polygon><polygon points="18,11.414 18,15.382 10.064,19.35" opacity=".3"></polygon><polygon points="6,10 7.823,11.368 6,16.838" opacity=".3"></polygon><path d="M6.5,3.427l9.385,4.693l-1.988,1.193L6.5,6.025V3.427 M5,1v6l9,4l5-3L5,1L5,1z"></path><path d="M17.5,12.621v2.452l-4.903,2.452L17.5,12.621 M19,9L5,23l14-7V9L19,9z"></path><path d="M6.5,11l0.735,0.551L6.5,13.757V11 M5,8v15l4-12L5,8L5,8z"></path>
</svg>
